<svg width="361" height="106" viewBox="0 0 361 106" fill="none" xmlns="http://www.w3.org/2000/svg">
<path d="M1.78814e-07 81.1V7H14.8V36.3H42.8V7H57.5V81.1H42.8V49.1H14.8V81.1H1.78814e-07ZM79.3836 103.5C77.7169 103.5 76.2836 103.4 75.0836 103.2C73.8836 103 72.7503 102.733 71.6836 102.4L74.3836 91.2C74.9169 91.3333 75.5169 91.4667 76.1836 91.6C76.9169 91.8 77.6169 91.9 78.2836 91.9C81.1503 91.9 83.4169 91.1 85.0836 89.5C86.7503 87.9 87.9836 85.8667 88.7836 83.4L89.7836 80L67.9836 25.1H82.7836L91.6836 51.1C92.5503 53.6333 93.3503 56.2333 94.0836 58.9C94.8169 61.5667 95.5836 64.2333 96.3836 66.9H96.8836C97.4836 64.2333 98.1169 61.6 98.7836 59C99.5169 56.3333 100.217 53.7 100.884 51.1L108.584 25.1H122.684L102.784 82.8C101.184 87.2 99.3503 90.9333 97.2836 94C95.2169 97.1333 92.7503 99.5 89.8836 101.1C87.0836 102.7 83.5836 103.5 79.3836 103.5ZM151.605 105.4C147.205 105.4 143.239 104.867 139.705 103.8C136.172 102.8 133.372 101.233 131.305 99.1C129.305 97.0333 128.305 94.3333 128.305 91C128.305 88.6667 128.972 86.5 130.305 84.5C131.639 82.5 133.639 80.8 136.305 79.4V78.9C134.839 77.9667 133.605 76.7333 132.605 75.2C131.672 73.6667 131.205 71.7333 131.205 69.4C131.205 67.3333 131.805 65.4 133.005 63.6C134.272 61.7333 135.739 60.2 137.405 59V58.6C135.472 57.2 133.739 55.2333 132.205 52.7C130.672 50.1667 129.905 47.2333 129.905 43.9C129.905 39.5 130.939 35.8 133.005 32.8C135.139 29.8 137.939 27.5333 141.405 26C144.872 24.4667 148.539 23.7 152.405 23.7C154.072 23.7 155.605 23.8333 157.005 24.1C158.472 24.3667 159.805 24.7 161.005 25.1H181.105V35.9H171.605C172.339 36.9 172.939 38.1333 173.405 39.6C173.872 41.0667 174.105 42.6667 174.105 44.4C174.105 48.6 173.139 52.1333 171.205 55C169.272 57.8 166.672 59.9 163.405 61.3C160.139 62.7 156.472 63.4 152.405 63.4C151.405 63.4 150.272 63.3 149.005 63.1C147.739 62.8333 146.472 62.5 145.205 62.1C144.472 62.7667 143.872 63.4667 143.405 64.2C143.005 64.8667 142.805 65.8 142.805 67C142.805 68.4 143.439 69.5 144.705 70.3C146.039 71.1 148.339 71.5 151.605 71.5H161.205C167.939 71.5 173.105 72.6333 176.705 74.9C180.305 77.1 182.105 80.6333 182.105 85.5C182.105 89.3 180.839 92.6667 178.305 95.6C175.839 98.6 172.305 100.967 167.705 102.7C163.172 104.5 157.805 105.4 151.605 105.4ZM152.405 54.3C154.072 54.3 155.572 53.9 156.905 53.1C158.239 52.3 159.305 51.1333 160.105 49.6C160.905 48 161.305 46.1 161.305 43.9C161.305 41.7 160.905 39.8667 160.105 38.4C159.305 36.8667 158.239 35.7333 156.905 35C155.572 34.2 154.072 33.8 152.405 33.8C150.805 33.8 149.339 34.2 148.005 35C146.672 35.7333 145.605 36.8667 144.805 38.4C144.072 39.8667 143.705 41.7 143.705 43.9C143.705 46.1 144.072 48 144.805 49.6C145.605 51.1333 146.672 52.3 148.005 53.1C149.339 53.9 150.805 54.3 152.405 54.3ZM153.805 96C156.672 96 159.139 95.6333 161.205 94.9C163.339 94.1667 165.005 93.2 166.205 92C167.405 90.8 168.005 89.4667 168.005 88C168.005 86 167.205 84.6333 165.605 83.9C164.005 83.2333 161.705 82.9 158.705 82.9H151.805C150.139 82.9 148.705 82.8333 147.505 82.7C146.305 82.6333 145.172 82.4667 144.105 82.2C142.839 83.2 141.905 84.2333 141.305 85.3C140.772 86.4333 140.505 87.6 140.505 88.8C140.505 91.0667 141.705 92.8333 144.105 94.1C146.505 95.3667 149.739 96 153.805 96ZM191.573 81.1V25.1H206.273V81.1H191.573ZM198.973 16C196.373 16 194.307 15.3 192.773 13.9C191.24 12.4333 190.473 10.4667 190.473 8.00001C190.473 5.6 191.24 3.66667 192.773 2.2C194.307 0.733335 196.373 1.19209e-06 198.973 1.19209e-06C201.44 1.19209e-06 203.473 0.733335 205.073 2.2C206.673 3.66667 207.473 5.6 207.473 8.00001C207.473 10.4667 206.673 12.4333 205.073 13.9C203.473 15.3 201.44 16 198.973 16ZM246.345 82.5C241.145 82.5 236.445 81.3333 232.245 79C228.045 76.6667 224.678 73.3 222.145 68.9C219.678 64.5 218.445 59.2333 218.445 53.1C218.445 48.5667 219.145 44.5 220.545 40.9C222.011 37.3 223.978 34.2333 226.445 31.7C228.978 29.1 231.778 27.1333 234.845 25.8C237.978 24.4 241.211 23.7 244.545 23.7C249.678 23.7 253.978 24.8667 257.445 27.2C260.911 29.4667 263.511 32.6333 265.245 36.7C267.045 40.7 267.945 45.3 267.945 50.5C267.945 51.8333 267.878 53.1333 267.745 54.4C267.611 55.6 267.445 56.5667 267.245 57.3H232.745C233.145 60.3 234.045 62.8333 235.445 64.9C236.845 66.9667 238.645 68.5333 240.845 69.6C243.045 70.6 245.545 71.1 248.345 71.1C250.611 71.1 252.745 70.8 254.745 70.2C256.745 69.5333 258.778 68.5667 260.845 67.3L265.845 76.3C263.111 78.1667 260.045 79.6667 256.645 80.8C253.245 81.9333 249.811 82.5 246.345 82.5ZM232.445 47.4H255.345C255.345 43.6667 254.478 40.7 252.745 38.5C251.078 36.2333 248.411 35.1 244.745 35.1C242.811 35.1 240.978 35.5667 239.245 36.5C237.511 37.3667 236.045 38.7333 234.845 40.6C233.645 42.4 232.845 44.6667 232.445 47.4ZM271.75 81.1L295.45 7H312.95L336.65 81.1H321.05L310.55 42.5C309.417 38.6333 308.317 34.6333 307.25 30.5C306.25 26.3 305.183 22.2333 304.05 18.3H303.65C302.717 22.3 301.683 26.3667 300.55 30.5C299.483 34.6333 298.417 38.6333 297.35 42.5L286.75 81.1H271.75ZM286.45 62.1V50.6H321.65V62.1H286.45ZM345.313 81.1V7H360.113V81.1H345.313Z" fill="white"/>
</svg>
