<svg data-v-423bf9ae="" xmlns="http://www.w3.org/2000/svg" viewBox="0 0 180.08948750779084 60" class="font"><!----><!----><!----><g data-v-423bf9ae="" id="4f07d3f1-7e0a-4f7c-9793-742b64c8397c" fill="white" transform="matrix(4.474272981560021,0,0,4.474272981560021,-4.653242038786402,-17.494407503511034)"><path d="M1.04 14.35L2.83 14.35L2.83 9.52C2.83 8.74 3.54 8.34 4.28 8.34C5.14 8.34 5.49 8.88 5.49 9.91L5.49 14.35L7.28 14.35L7.28 9.73C7.28 7.91 6.44 6.87 4.94 6.87C3.81 6.87 3.19 7.48 2.90 8.26L2.83 8.26L2.83 3.99L1.04 3.99ZM12.36 10.91L11.86 12.75L11.77 12.75L11.30 10.91L10.02 7.04L8.25 7.04L10.86 14.70L10.53 15.72L9.21 15.72L9.21 17.15L10.29 17.15C11.49 17.15 12.01 16.70 12.38 15.65L15.32 7.04L13.64 7.04ZM22.75 14.97C22.75 13.65 21.98 12.88 20.19 12.88L18.23 12.88C17.58 12.88 17.28 12.70 17.28 12.33C17.28 12.01 17.51 11.80 17.79 11.68C18.12 11.76 18.49 11.80 18.91 11.80C20.90 11.80 21.94 10.82 21.94 9.35C21.94 8.46 21.56 7.74 20.80 7.32L20.80 7.13L22.36 7.13L22.36 5.75L21.22 5.75C20.55 5.75 20.19 6.10 20.19 6.82L20.19 7.06C19.82 6.93 19.36 6.87 18.91 6.87C16.94 6.87 15.89 7.87 15.89 9.35C15.89 10.32 16.34 11.07 17.22 11.48L17.22 11.54C16.52 11.69 15.88 12.07 15.88 12.82C15.88 13.41 16.21 13.89 16.81 14.04L16.81 14.20C16.00 14.32 15.51 14.78 15.51 15.60C15.51 16.67 16.45 17.32 18.91 17.32C21.71 17.32 22.75 16.49 22.75 14.97ZM21.07 15.18C21.07 15.79 20.55 16.09 19.39 16.09L18.49 16.09C17.37 16.09 16.95 15.75 16.95 15.19C16.95 14.90 17.07 14.63 17.33 14.43L19.82 14.43C20.73 14.43 21.07 14.71 21.07 15.18ZM18.91 10.58C18.06 10.58 17.60 10.19 17.60 9.46L17.60 9.23C17.60 8.48 18.06 8.11 18.91 8.11C19.77 8.11 20.23 8.48 20.23 9.23L20.23 9.46C20.23 10.19 19.77 10.58 18.91 10.58ZM26.66 14.52C28.01 14.52 29.08 14 29.68 13.17L28.71 12.10C28.27 12.67 27.73 13.09 26.85 13.09C25.68 13.09 25.07 12.38 25.07 11.33L25.07 11.14L29.93 11.14L29.93 10.56C29.93 8.55 28.88 6.87 26.60 6.87C24.46 6.87 23.21 8.37 23.21 10.68C23.21 13.02 24.50 14.52 26.66 14.52ZM26.63 8.22C27.55 8.22 28.07 8.90 28.07 9.91L28.07 10.04L25.07 10.04L25.07 9.93C25.07 8.92 25.69 8.22 26.63 8.22ZM33.32 14.52C34.41 14.52 35.21 14.03 35.45 13.09L35.53 13.09C35.64 13.85 36.12 14.35 36.89 14.35L37.88 14.35L37.88 12.92L37.16 12.92L37.16 9.48C37.16 7.81 36.11 6.87 34.13 6.87C32.66 6.87 31.81 7.43 31.28 8.27L32.34 9.23C32.69 8.72 33.17 8.30 34.01 8.30C34.96 8.30 35.36 8.78 35.36 9.59L35.36 10.12L34.12 10.12C32.13 10.12 31.00 10.86 31.00 12.36C31.00 13.66 31.84 14.52 33.32 14.52ZM33.92 13.22C33.22 13.22 32.82 12.92 32.82 12.33L32.82 12.10C32.82 11.52 33.28 11.20 34.22 11.20L35.36 11.20L35.36 12.17C35.36 12.85 34.72 13.22 33.92 13.22ZM40.24 5.98C40.96 5.98 41.29 5.60 41.29 5.08L41.29 4.80C41.29 4.28 40.96 3.91 40.24 3.91C39.49 3.91 39.19 4.28 39.19 4.80L39.19 5.08C39.19 5.60 39.49 5.98 40.24 5.98ZM39.34 14.35L41.13 14.35L41.13 7.04L39.34 7.04Z"></path></g><!----><!----></svg>