<svg width="278" height="278" viewBox="0 0 278 278" fill="none" xmlns="http://www.w3.org/2000/svg">
<g clip-path="url(#clip0_5_98)">
<path d="M139.541 233.825L185.8 260.511L187.551 261.52L218.544 243.612L213.292 240.583L170.534 215.916L218.523 188.187L213.272 185.157L189.267 171.31L187.517 170.3L139.528 198.029L93.2691 171.342L91.5193 170.332L60.5221 188.243L65.7734 191.273L108.535 215.938L60.5427 243.669L65.7939 246.698L89.7989 260.546L91.5487 261.556L139.541 233.825Z" fill="white" stroke="white" stroke-width="7"/>
<path d="M56.5 91.2627L10.25 117.965L8.5 118.976V154.771L13.75 151.739L56.5 127.058V182.482L61.75 179.451L85.75 165.595L87.5 164.585V109.16L133.75 82.459L135.5 81.4492V45.6494L130.25 48.6807L87.5 73.3652V17.9375L82.25 20.9688L58.25 34.8252L56.5 35.835V91.2627Z" fill="white" stroke="white" stroke-width="7"/>
<path d="M87.5 168.263L133.75 194.965L135.5 195.976V231.771L130.25 228.739L87.5 204.058V259.482L82.25 256.451L58.25 242.595L56.5 241.585V186.16L10.25 159.459L8.5 158.449V122.649L13.75 125.681L56.5 150.365V94.9375L61.75 97.9688L85.75 111.825L87.5 112.835V168.263Z" fill="#E42222" stroke="#E42222" stroke-width="7"/>
<path d="M221.5 91.2627L267.75 117.965L269.5 118.976V154.771L264.25 151.739L221.5 127.058V182.482L216.25 179.451L192.25 165.595L190.5 164.585V109.16L144.25 82.459L142.5 81.4492V45.6494L147.75 48.6807L190.5 73.3652V17.9375L195.75 20.9688L219.75 34.8252L221.5 35.835V91.2627Z" fill="white" stroke="white" stroke-width="7"/>
</g>
<defs>
<clipPath id="clip0_5_98">
<rect width="278" height="278" fill="white"/>
</clipPath>
</defs>
</svg>
